<?xml version="1.0" encoding="UTF-8"?>
<svg id="Layer_1" data-name="Layer 1" xmlns="http://www.w3.org/2000/svg" viewBox="0 0 222.64 222.64">
  <defs>
    <style>
      .cls-1 {
        fill: #bc7f67;
      }

      .cls-1, .cls-2, .cls-3 {
        stroke-width: 0px;
      }

      .cls-2, .cls-3 {
        fill: #231f20;
      }

      .cls-3 {
        fill-rule: evenodd;
      }
    </style>
  </defs>
  <path class="cls-2" d="M200.69,107.88c0-1.19-.33-2.14-.99-2.86-.66-.72-1.53-1.08-2.61-1.08-1.01,0-1.86.35-2.54,1.06-.68.71-1.13,1.67-1.35,2.88h7.49ZM197.05,99.21c3.17,0,5.61.98,7.31,2.95,1.7,1.97,2.56,4.67,2.56,8.1,0,.53-.01.93-.04,1.21h-13.54c.31,1.16.85,2.05,1.62,2.67.77.62,1.7.93,2.81.93.84,0,1.65-.18,2.43-.53.78-.35,1.49-.87,2.14-1.55l3.35,3.52c-1.01,1.19-2.23,2.09-3.66,2.71-1.43.62-3.04.93-4.84.93-2.09,0-3.91-.43-5.47-1.29-1.56-.86-2.76-2.07-3.58-3.63-.83-1.56-1.24-3.38-1.24-5.45s.42-3.94,1.26-5.54c.84-1.6,2.03-2.84,3.57-3.71,1.54-.87,3.31-1.31,5.33-1.31ZM181.35,106.9c-.91-1.41-2.18-2.12-3.82-2.12-1.15,0-2.09.46-2.81,1.38-.72.92-1.08,2.11-1.08,3.58s.36,2.69,1.08,3.59c.72.91,1.66,1.36,2.81,1.36,1.78,0,3.05-.77,3.82-2.31l4.72,2.84c-.77,1.56-1.92,2.78-3.46,3.63-1.54.86-3.34,1.29-5.4,1.29s-3.75-.43-5.26-1.29c-1.51-.86-2.68-2.07-3.51-3.63-.83-1.56-1.24-3.38-1.24-5.45s.42-3.94,1.26-5.54c.84-1.6,2.02-2.84,3.55-3.71,1.52-.87,3.28-1.31,5.28-1.31s3.67.42,5.19,1.27c1.51.85,2.69,2.04,3.53,3.58l-4.65,2.84ZM157.36,99.18c2.14,0,3.85.71,5.13,2.12,1.28,1.41,1.93,3.32,1.93,5.71v12.9h-6.38v-10.97c0-1.16-.3-2.07-.9-2.74-.6-.67-1.4-1-2.41-1-1.06.03-1.93.39-2.61,1.1-.68.71-1.09,1.64-1.21,2.8v10.82h-6.41v-20.47h6.41v3.33c.7-1.19,1.59-2.08,2.68-2.69,1.09-.61,2.35-.91,3.76-.91ZM135,107.88c0-1.19-.33-2.14-.99-2.86-.66-.72-1.53-1.08-2.61-1.08-1.01,0-1.85.35-2.54,1.06-.68.71-1.13,1.67-1.35,2.88h7.49ZM131.36,99.21c3.17,0,5.61.98,7.31,2.95,1.7,1.97,2.56,4.67,2.56,8.1,0,.53-.01.93-.04,1.21h-13.54c.31,1.16.85,2.05,1.62,2.67.77.62,1.7.93,2.81.93.84,0,1.65-.18,2.43-.53.78-.35,1.49-.87,2.14-1.55l3.35,3.52c-1.01,1.19-2.23,2.09-3.66,2.71-1.43.62-3.04.93-4.84.93-2.09,0-3.91-.43-5.47-1.29-1.56-.86-2.76-2.07-3.58-3.63-.83-1.56-1.24-3.38-1.24-5.45s.42-3.94,1.26-5.54c.84-1.6,2.03-2.84,3.57-3.71,1.54-.87,3.31-1.31,5.33-1.31ZM114.72,90.02c.98,0,1.8.33,2.43,1,.64.67.95,1.53.95,2.59s-.32,1.89-.95,2.57c-.64.68-1.45,1.02-2.43,1.02s-1.79-.34-2.43-1.02c-.64-.68-.95-1.54-.95-2.57s.32-1.92.95-2.59c.64-.67,1.45-1,2.43-1ZM117.89,99.44v20.47h-6.38v-20.47h6.38ZM106.43,91.84v28.08h-6.41v-28.08h6.41ZM91.77,90.02c.98,0,1.79.33,2.43,1,.64.67.95,1.53.95,2.59s-.32,1.89-.95,2.57c-.64.68-1.45,1.02-2.43,1.02s-1.79-.34-2.43-1.02c-.64-.68-.95-1.54-.95-2.57s.32-1.92.95-2.59c.64-.67,1.45-1,2.43-1ZM94.94,99.44v20.47h-6.38v-20.47h6.38ZM82.95,105.91c-2.52-1.39-4.59-2.08-6.2-2.08-.55,0-1,.11-1.33.32-.34.21-.5.54-.5.96,0,.45.26.82.79,1.1.53.28,1.37.58,2.52.91,1.39.43,2.55.85,3.48,1.27.92.42,1.72,1.05,2.4,1.89.67.85,1.01,1.95,1.01,3.31,0,2.07-.76,3.69-2.29,4.86-1.52,1.17-3.51,1.76-5.96,1.76-1.66,0-3.24-.25-4.75-.74-1.51-.49-2.86-1.22-4.03-2.18l2.02-4.35c1.1.81,2.26,1.43,3.48,1.87,1.21.44,2.36.66,3.44.66.62,0,1.12-.11,1.49-.32.37-.21.56-.52.56-.93,0-.5-.27-.9-.81-1.17-.54-.28-1.39-.58-2.54-.91-1.37-.43-2.5-.85-3.39-1.27-.89-.42-1.66-1.04-2.32-1.87-.66-.83-.99-1.92-.99-3.25,0-2.07.74-3.69,2.23-4.86,1.49-1.17,3.41-1.76,5.76-1.76,1.42,0,2.82.2,4.2.61,1.38.4,2.68,1,3.91,1.78l-2.16,4.39ZM60.44,107.88c0-1.19-.33-2.14-.99-2.86-.66-.72-1.53-1.08-2.61-1.08-1.01,0-1.85.35-2.54,1.06-.68.71-1.13,1.67-1.35,2.88h7.49ZM56.8,99.21c3.17,0,5.61.98,7.31,2.95,1.7,1.97,2.56,4.67,2.56,8.1,0,.53-.01.93-.04,1.21h-13.54c.31,1.16.85,2.05,1.62,2.67.77.62,1.7.93,2.81.93.84,0,1.65-.18,2.43-.53.78-.35,1.49-.87,2.14-1.55l3.35,3.52c-1.01,1.19-2.23,2.09-3.66,2.71-1.43.62-3.04.93-4.84.93-2.09,0-3.91-.43-5.47-1.29-1.56-.86-2.76-2.07-3.58-3.63-.83-1.56-1.24-3.38-1.24-5.45s.42-3.94,1.26-5.54c.84-1.6,2.03-2.84,3.57-3.71,1.54-.87,3.31-1.31,5.33-1.31ZM28.74,107.05h4.79c1.34,0,2.38-.35,3.12-1.06.73-.71,1.1-1.73,1.1-3.07s-.37-2.28-1.1-2.97c-.73-.69-1.77-1.04-3.12-1.04h-4.79v8.14ZM37.31,119.92l-3.67-7.34h-4.9v7.34h-6.59v-26.53h11.35c3.34,0,5.93.81,7.76,2.44,1.84,1.63,2.76,3.92,2.76,6.87,0,1.99-.38,3.72-1.15,5.17-.77,1.45-1.88,2.58-3.35,3.39l5.26,8.67h-7.46Z"/>
  <path class="cls-3" d="M111.32,2.65c60.02,0,108.67,48.65,108.67,108.67s-48.65,108.67-108.67,108.67S2.65,171.33,2.65,111.32,51.3,2.65,111.32,2.65M111.32,0c61.48,0,111.32,49.84,111.32,111.32s-49.84,111.32-111.32,111.32S0,172.8,0,111.32,49.84,0,111.32,0Z"/>
  <path class="cls-1" d="M166.62,39.68l-1.58,2.66-.22-.15c.24-.77.3-1.43.2-1.98-.15-.79-.6-1.45-1.34-1.98-1.01-.72-2.07-.87-3.17-.44-.92.36-1.72,1.01-2.39,1.95-.54.76-.89,1.56-1.04,2.4-.15.83-.09,1.57.17,2.2.27.63.65,1.12,1.16,1.48.29.21.61.37.93.49.33.12.67.2,1.03.23l1.65-2.31c.29-.4.44-.69.47-.85.03-.17,0-.33-.08-.48-.08-.16-.28-.35-.6-.58l.15-.22,3.08,2.19-.15.22-.15-.1c-.3-.22-.59-.26-.85-.14-.18.09-.42.35-.73.78l-1.74,2.45c-.62-.07-1.2-.21-1.72-.41-.52-.2-1.05-.49-1.58-.87-1.54-1.09-2.36-2.42-2.45-3.98-.07-1.17.24-2.24.92-3.2.5-.7,1.15-1.26,1.94-1.66.94-.48,1.91-.68,2.9-.6.83.07,1.64.39,2.43.96.29.21.53.42.74.63.2.22.47.56.79,1.03.16.24.28.39.35.44.07.05.16.06.26.03.1-.03.23-.14.38-.34l.22.15ZM142.76,26.52l2.4,1.08,2.44,9.18,2.33-5.16c.25-.55.34-.92.28-1.11-.08-.26-.3-.47-.65-.63l-.31-.14.11-.24,3.14,1.42-.11.24-.32-.14c-.38-.17-.7-.18-.97-.03-.16.1-.35.4-.58.9l-3.4,7.52-.24-.11-2.62-9.85-2.49,5.5c-.25.55-.34.92-.29,1.11.09.26.3.47.66.63l.32.14-.11.24-3.14-1.42.11-.24.31.14c.39.17.71.18.97.03.16-.1.35-.4.58-.9l2.81-6.21c-.12-.42-.23-.71-.32-.87-.09-.16-.25-.34-.46-.54-.11-.1-.29-.2-.55-.32l.11-.24ZM133.35,33.59l-.06.26-4.09-.94.06-.26.34.08c.4.09.71.04.94-.14.15-.12.29-.47.42-1.04l1.43-6.18c.11-.48.15-.81.13-.98-.02-.13-.09-.25-.22-.37-.18-.16-.38-.27-.61-.32l-.34-.08.06-.26,4.09.94-.06.26-.34-.08c-.39-.09-.7-.04-.93.15-.15.12-.29.47-.42,1.04l-1.43,6.18c-.11.48-.15.81-.13.98.02.13.09.25.23.37.18.16.37.26.6.32l.34.08ZM113.38,21.01l2.63.2,5.43,7.79.43-5.64c.05-.6,0-.98-.12-1.14-.16-.21-.44-.34-.83-.37l-.34-.03.02-.27,3.43.26-.02.27-.35-.03c-.42-.03-.72.07-.92.31-.12.15-.2.49-.24,1.04l-.63,8.23-.26-.02-5.83-8.36-.46,6.02c-.05.6,0,.98.11,1.14.17.22.45.34.83.37l.35.03-.02.27-3.43-.26.02-.27.34.03c.42.03.73-.07.93-.31.12-.15.2-.49.24-1.04l.52-6.79c-.26-.35-.46-.59-.59-.7-.14-.12-.35-.23-.62-.35-.14-.05-.35-.09-.63-.11l.02-.27ZM106.97,30.74l.02.26-4.18.32-.02-.26.35-.03c.41-.03.69-.17.85-.42.1-.16.13-.54.09-1.12l-.48-6.32c-.04-.49-.09-.82-.17-.97-.06-.12-.16-.21-.32-.29-.22-.1-.45-.14-.68-.12l-.35.03-.02-.27,4.18-.32.02.27-.35.03c-.4.03-.68.17-.84.42-.11.16-.14.54-.09,1.12l.48,6.32c.04.49.09.82.17.97.06.12.16.21.33.29.21.1.44.14.67.12l.35-.03ZM92.13,29.31l-2.5-3.48-.76,4.23,3.26-.75ZM92.47,29.78l-3.7.85-.29,1.64c-.07.41-.09.7-.05.89.03.14.13.26.3.34.16.08.48.08.94,0l.06.26-3.01.69-.06-.26c.38-.16.62-.31.71-.45.19-.28.35-.8.48-1.56l1.54-8.63.24-.05,5.15,7.17c.41.58.75.93,1.01,1.08.26.14.59.18.99.11l.06.26-3.76.87-.06-.26c.37-.11.62-.23.73-.37.11-.14.14-.29.11-.44-.05-.21-.22-.51-.51-.91l-.88-1.23ZM73.21,34.76c.08-.04.15-.07.22-.1.06-.02.11-.05.15-.06.84-.38,1.39-.85,1.65-1.41.26-.56.26-1.13,0-1.7-.25-.56-.63-.93-1.13-1.13-.5-.19-1.04-.16-1.61.1-.25.11-.57.31-.97.58l1.68,3.72ZM81.62,36.48l-2.39,1.08-4.92-2.8c-.21.11-.39.19-.53.25-.06.03-.12.05-.18.08-.07.03-.13.05-.2.08l1.17,2.6c.25.56.47.88.66.96.25.12.55.1.88-.05l.35-.16.11.24-3.82,1.73-.11-.24.33-.15c.38-.17.59-.42.64-.73.03-.18-.07-.52-.3-1.03l-2.61-5.78c-.25-.56-.47-.88-.66-.96-.26-.12-.56-.1-.89.05l-.33.15-.11-.24,3.25-1.47c.95-.43,1.68-.68,2.19-.74.51-.06,1.01.02,1.49.25.48.23.84.6,1.07,1.11.25.55.28,1.11.11,1.67-.18.57-.6,1.1-1.28,1.61l3,1.72c.69.4,1.23.63,1.62.68.39.06.84,0,1.35-.16l.11.24ZM61.8,35.84l1.42,1.82-.22.16c-.28-.3-.5-.49-.68-.58-.28-.14-.56-.19-.84-.16-.28.04-.58.17-.91.4l-1.12.8,4.33,6.09c.35.49.62.76.81.81.27.06.55-.02.86-.24l.27-.2.15.22-3.4,2.41-.15-.22.29-.2c.34-.24.51-.52.51-.82,0-.19-.16-.51-.48-.95l-4.33-6.09-.96.68c-.37.27-.62.48-.74.65-.15.22-.22.48-.22.8,0,.31.12.66.35,1.04l-.22.16-1.25-1.94,6.53-4.64Z"/>
  <path class="cls-1" d="M174.46,164.75l2.4,1.96-.18.19c-.73-.35-1.37-.51-1.93-.49-.81.03-1.53.38-2.16,1.03-.86.9-1.16,1.92-.89,3.07.22.97.75,1.85,1.58,2.64.67.65,1.41,1.1,2.22,1.38.8.27,1.54.32,2.2.15.66-.17,1.21-.48,1.63-.93.25-.26.46-.54.62-.85.17-.3.29-.63.38-.98l-2.05-1.97c-.36-.34-.61-.54-.77-.59-.16-.05-.33-.05-.49.01-.17.06-.39.23-.66.51l-.19-.18,2.62-2.73.19.18-.12.13c-.26.27-.35.54-.26.82.06.19.28.47.66.83l2.17,2.08c-.17.61-.39,1.15-.66,1.64-.27.49-.64.97-1.09,1.44-1.31,1.36-2.74,1.98-4.29,1.85-1.17-.1-2.18-.56-3.04-1.38-.62-.6-1.08-1.32-1.36-2.16-.34-1-.4-1.99-.17-2.96.19-.81.63-1.56,1.3-2.27.25-.26.49-.47.73-.64.24-.17.62-.38,1.13-.63.26-.12.42-.22.49-.29.06-.07.09-.15.07-.26-.02-.1-.11-.25-.28-.43l.18-.19ZM156.73,181l2.06-1.64,9.28,2-3.53-4.42c-.38-.47-.67-.72-.87-.76-.27-.05-.55.05-.86.3l-.27.22-.17-.21,2.69-2.15.17.21-.27.22c-.33.26-.48.55-.46.85.01.19.19.5.53.93l5.15,6.45-.2.16-9.96-2.14,3.77,4.71c.38.47.66.72.86.76.27.04.56-.06.86-.3l.27-.22.17.21-2.69,2.15-.17-.21.27-.22c.33-.26.49-.55.47-.86-.01-.19-.19-.5-.53-.93l-4.25-5.32c-.43-.08-.73-.12-.91-.11-.18,0-.41.07-.69.17-.14.06-.31.17-.54.35l-.17-.21ZM157.73,191.15l.13.23-3.62,2.11-.13-.23.3-.17c.35-.2.54-.45.59-.75.02-.19-.12-.54-.41-1.05l-3.19-5.48c-.25-.43-.44-.69-.57-.8-.1-.08-.24-.12-.41-.12-.24,0-.46.07-.66.19l-.3.17-.13-.23,3.62-2.11.13.23-.3.18c-.34.2-.54.45-.58.74-.03.19.11.54.4,1.05l3.19,5.48c.25.43.44.69.57.8.1.08.24.12.42.12.24,0,.45-.06.65-.18l.3-.18ZM144.95,187.06l.93,2.11-.25.1c-.2-.36-.37-.6-.52-.73-.24-.2-.5-.33-.78-.36-.28-.03-.61.02-.98.17l-1.28.5,2.72,6.97c.22.56.42.89.59.98.24.12.54.11.89-.02l.31-.12.1.25-3.88,1.52-.1-.25.33-.13c.39-.15.62-.38.69-.68.04-.18-.04-.53-.23-1.04l-2.72-6.97-1.09.43c-.43.17-.72.32-.87.45-.2.18-.33.42-.41.72-.07.31-.04.67.09,1.1l-.25.1-.74-2.18,7.46-2.91ZM135.45,198h.24s-.22,2.77-.22,2.77l-7.39,1.7-.06-.26.36-.08c.4-.09.66-.29.77-.59.06-.17.03-.53-.09-1.07l-1.43-6.18c-.14-.6-.29-.95-.45-1.07-.23-.16-.53-.2-.89-.12l-.36.08-.06-.26,4.32-1,.06.26c-.51.11-.85.24-1.04.39-.18.14-.29.3-.33.46-.04.17,0,.53.13,1.09l1.39,6.02c.09.39.19.65.3.78.08.09.18.14.31.16.13.02.5-.04,1.12-.18l.7-.16c.73-.17,1.24-.34,1.51-.52.27-.18.5-.43.68-.76.18-.33.32-.82.43-1.46ZM118.04,194.1l-.02-.27,3.43-.26.02.27-.37.03c-.38.03-.67.21-.85.55-.09.16-.11.51-.07,1.05l.3,3.96c.07.98.04,1.75-.12,2.3-.15.56-.5,1.05-1.04,1.48-.54.43-1.29.68-2.27.76-1.06.08-1.89-.04-2.46-.37-.58-.33-1.01-.8-1.28-1.4-.19-.42-.32-1.21-.41-2.39l-.29-3.82c-.05-.6-.16-.99-.34-1.16-.18-.17-.45-.25-.82-.22l-.37.03-.02-.27,4.21-.32.02.27-.37.03c-.4.03-.68.18-.83.45-.11.18-.14.55-.1,1.09l.32,4.26c.03.38.1.81.2,1.3.11.48.26.85.47,1.12.21.26.49.46.84.62.36.15.78.21,1.28.17.64-.05,1.2-.23,1.68-.55.48-.32.8-.7.95-1.15.15-.45.19-1.19.11-2.23l-.3-3.95c-.05-.61-.14-.98-.29-1.13-.2-.2-.49-.28-.86-.25l-.37.03ZM105.57,193.69l-.26,3.37-.27-.02c-.04-.65-.15-1.18-.35-1.58-.19-.4-.49-.73-.89-.99-.4-.26-.81-.4-1.26-.44-.5-.04-.93.08-1.28.36-.35.28-.54.62-.57,1-.02.3.06.58.25.84.27.38.94.92,2.02,1.6.88.56,1.47.98,1.79,1.27.31.29.55.61.7.98.15.37.21.75.19,1.14-.06.74-.39,1.35-1.01,1.85-.62.49-1.37.7-2.28.63-.28-.02-.55-.06-.8-.13-.15-.04-.45-.15-.91-.34-.46-.19-.75-.29-.87-.3-.12,0-.22.02-.29.09-.07.07-.14.21-.19.44l-.27-.02.25-3.34.27.02c.07.71.2,1.25.38,1.61.18.36.49.68.9.94.42.26.89.42,1.4.46.6.05,1.09-.08,1.46-.37.37-.29.58-.65.61-1.09.02-.24-.03-.49-.14-.74-.11-.26-.3-.5-.56-.73-.18-.16-.67-.5-1.47-1.03-.8-.53-1.37-.95-1.7-1.25-.33-.3-.58-.63-.74-.98-.16-.35-.22-.73-.19-1.13.05-.7.37-1.28.95-1.75.58-.46,1.28-.67,2.11-.6.52.04,1.06.21,1.62.51.26.14.45.21.56.22.13,0,.23-.02.32-.09.08-.07.16-.21.23-.43l.27.02ZM84.78,189.88l2.54.71,3.8,8.7,1.52-5.45c.16-.58.2-.96.11-1.14-.12-.24-.37-.42-.74-.52l-.33-.09.07-.26,3.32.93-.07.26-.34-.09c-.41-.11-.72-.07-.96.12-.14.12-.29.45-.44.97l-2.22,7.95-.25-.07-4.09-9.34-1.62,5.81c-.16.58-.2.96-.11,1.14.12.24.37.42.74.52l.34.09-.07.26-3.32-.93.07-.26.33.09c.41.11.73.07.97-.12.14-.12.29-.45.44-.97l1.83-6.56c-.18-.4-.33-.67-.44-.81-.11-.14-.29-.29-.54-.46-.12-.08-.32-.16-.59-.23l.07-.26ZM76.11,186.62c-.8-.36-1.57-.35-2.32.03-.93.47-1.72,1.42-2.35,2.84-.65,1.46-.85,2.72-.57,3.79.21.81.71,1.39,1.49,1.74.84.38,1.68.36,2.51-.05.84-.41,1.57-1.32,2.2-2.73.68-1.53.89-2.81.63-3.83-.21-.81-.75-1.41-1.6-1.79ZM76.45,186.2c1.16.52,1.97,1.41,2.42,2.67.46,1.26.39,2.55-.2,3.87-.61,1.36-1.54,2.29-2.8,2.81-1.26.52-2.49.5-3.71-.04-1.23-.55-2.06-1.45-2.51-2.7-.45-1.25-.36-2.57.26-3.96.63-1.42,1.64-2.36,3-2.83,1.19-.4,2.36-.34,3.53.18ZM67.71,181.65l-1.75,2.84-.18-.13c.34-.98.41-1.81.21-2.49-.19-.68-.6-1.24-1.23-1.69-.53-.37-1.1-.58-1.71-.62-.62-.03-1.26.15-1.92.57-.66.41-1.31,1.06-1.93,1.93-.51.72-.85,1.43-.99,2.12-.15.69-.09,1.35.17,1.96.26.61.69,1.13,1.28,1.55.52.37,1.05.58,1.6.64.55.06,1.3-.07,2.24-.39l.1.25c-.9.42-1.74.61-2.5.56-.76-.05-1.51-.34-2.24-.86-1.32-.94-1.99-2.16-2.01-3.65-.02-1.11.32-2.17,1.03-3.15.57-.8,1.27-1.4,2.1-1.81.83-.41,1.69-.58,2.57-.5.89.08,1.7.38,2.43.91.57.41,1.04.95,1.4,1.63.1.2.19.33.26.38.1.07.22.1.35.08.18-.03.35-.13.53-.29l.22.15ZM44.94,173.57c.19-1.06.34-1.81.46-2.26.12-.45.29-.99.51-1.61-.64-.19-1.21-.25-1.7-.18-.49.07-.91.26-1.25.58-.37.36-.59.79-.64,1.3-.05.51.12.97.51,1.38.21.22.46.39.74.51.28.12.74.22,1.36.29ZM47.42,169.64c.62.23,1.16.33,1.62.3.46-.04.86-.21,1.17-.51.25-.24.38-.51.4-.83.01-.31-.09-.58-.31-.81-.29-.3-.61-.43-.97-.38-.36.05-.64.17-.84.36-.17.16-.33.37-.49.63-.15.26-.35.67-.6,1.24ZM49.46,171.5l2.1,2.19-.2.19c-.31-.28-.59-.44-.84-.48-.25-.04-.79.05-1.64.27-.84.22-1.69.37-2.53.44-.06.66-.05,1.17.04,1.55.09.38.25.69.49.94.23.24.49.38.78.42.29.04.6-.02.92-.2l.04.33c-.61.34-1.17.48-1.68.42-.51-.06-.94-.28-1.31-.66-.27-.28-.47-.65-.6-1.09-.12-.44-.17-1.02-.13-1.72-.8-.06-1.44-.19-1.92-.4-.48-.2-.91-.5-1.29-.89-.55-.57-.83-1.17-.85-1.8-.02-.63.19-1.15.61-1.56.42-.4.98-.65,1.69-.75.71-.1,1.69.05,2.94.46.2-.51.39-.91.56-1.19.17-.28.37-.52.58-.73.59-.57,1.26-.79,1.99-.65.57.11,1.06.38,1.48.81.4.41.6.87.6,1.36,0,.5-.17.91-.53,1.26-.37.35-.81.54-1.33.55-.52.01-1.25-.14-2.19-.46-.36,1.19-.64,2.34-.84,3.45,1.32-.09,2.22-.37,2.72-.85.16-.15.25-.34.27-.56.02-.17-.03-.33-.15-.49l.2-.19Z"/>
  <path class="cls-3" d="M176.62,143.27c-11.83,24.12-36.62,40.73-65.3,40.73s-53.48-16.61-65.3-40.73h1.04c11.75,23.59,36.11,39.81,64.26,39.81s52.51-16.21,64.26-39.81h1.04ZM111.32,38.63c28.68,0,53.48,16.61,65.3,40.73h-1.04c-11.75-23.59-36.11-39.81-64.26-39.81s-52.51,16.21-64.26,39.81h-1.04c11.83-24.12,36.62-40.73,65.3-40.73Z"/>
</svg>